<?xml version="1.0" encoding="UTF-8" standalone="no"?>
<svg
   xmlns:dc="http://purl.org/dc/elements/1.1/"
   xmlns:cc="http://creativecommons.org/ns#"
   xmlns:rdf="http://www.w3.org/1999/02/22-rdf-syntax-ns#"
   xmlns:svg="http://www.w3.org/2000/svg"
   xmlns="http://www.w3.org/2000/svg"
   xmlns:xlink="http://www.w3.org/1999/xlink"
   xmlns:sodipodi="http://sodipodi.sourceforge.net/DTD/sodipodi-0.dtd"
   xmlns:inkscape="http://www.inkscape.org/namespaces/inkscape"
   width="96"
   height="96"
   id="svg2"
   version="1.1"
   inkscape:version="0.48.5 r10040"
   sodipodi:docname="bastet.svg"
   inkscape:export-filename="/home/sad/doc/prog/bastet/bastet.png"
   inkscape:export-xdpi="73.631256"
   inkscape:export-ydpi="73.631256">
  <metadata
     id="metadata58">
    <rdf:RDF>
      <cc:Work
         rdf:about="">
        <dc:format>image/svg+xml</dc:format>
        <dc:type
           rdf:resource="http://purl.org/dc/dcmitype/StillImage" />
        <dc:title></dc:title>
      </cc:Work>
    </rdf:RDF>
  </metadata>
  <sodipodi:namedview
     pagecolor="#ffffff"
     bordercolor="#666666"
     borderopacity="1"
     objecttolerance="10"
     gridtolerance="10"
     guidetolerance="10"
     inkscape:pageopacity="0"
     inkscape:pageshadow="2"
     inkscape:window-width="1535"
     inkscape:window-height="876"
     id="namedview56"
     showgrid="false"
     showguides="true"
     inkscape:guide-bbox="true"
     inkscape:zoom="2.8277778"
     inkscape:cx="180"
     inkscape:cy="60"
     inkscape:window-x="65"
     inkscape:window-y="24"
     inkscape:window-maximized="1"
     inkscape:current-layer="svg2" />
  <defs
     id="defs4">
    <g
       id="x">
      <rect
         height="24"
         width="24"
         id="rect7"
         x="0"
         y="0" />
      <path
         d="M 0,0 3,3 21,3 24,0"
         id="path9"
         inkscape:connector-curvature="0"
         style="fill:#ffffff;fill-opacity:0.7" />
      <path
         d="m 0,0 3,3 0,18 -3,3 m 24,-24 -3,3 0,18 3,3"
         id="path11"
         inkscape:connector-curvature="0"
         style="fill:#000000;fill-opacity:0.1" />
      <path
         d="m 0,24 3,-3 18,0 3,3"
         id="path13"
         inkscape:connector-curvature="0"
         style="fill:#000000;fill-opacity:0.5" />
    </g>
    <g
       id="n">
      <use
         id="0"
         y="24"
         x="120"
         xlink:href="#x"
         width="360"
         height="120" />
      <use
         x="24"
         xlink:href="#0"
         id="use17"
         y="0"
         width="360"
         height="120" />
      <use
         x="48"
         xlink:href="#0"
         id="use19"
         y="0"
         width="360"
         height="120" />
    </g>
  </defs>
  <g
     id="g4168"
     transform="matrix(1.6526413,0,0,1.6620474,-303.11059,-82.522197)">
    <g
       transform="translate(-125.17808,59.0137)"
       id="o-5">
      <use
         height="120"
         width="360"
         y="0"
         style="fill:#f0f000"
         xlink:href="#x"
         x="312"
         id="b-8" />
      <use
         height="120"
         width="360"
         y="0"
         id="use36-1"
         xlink:href="#b-8"
         x="24" />
    </g>
    <use
       height="120"
       width="360"
       x="0"
       transform="translate(-8.2191781e-7,-3.0136986e-6)"
       id="use38-5"
       xlink:href="#o-5"
       y="24" />
    <path
       transform="matrix(1.3523809,0,0,0.89349112,-36.070384,8.2818815)"
       d="m 180.27982,74.666672 c 0,3.072794 -1.54766,5.563785 -3.45679,5.563785 -1.90913,0 -3.45679,-2.490991 -3.45679,-5.563785 0,-3.072794 1.54766,-5.563786 3.45679,-5.563786 1.90913,0 3.45679,2.490992 3.45679,5.563786 z"
       sodipodi:ry="5.5637856"
       sodipodi:rx="3.45679"
       sodipodi:cy="74.666672"
       sodipodi:cx="176.82303"
       id="path3234"
       style="fill:#000000;stroke:none"
       sodipodi:type="arc" />
    <path
       transform="matrix(1.3523809,0,0,0.89349112,-20.728808,8.5123321)"
       d="m 180.27982,74.666672 c 0,3.072794 -1.54766,5.563785 -3.45679,5.563785 -1.90913,0 -3.45679,-2.490991 -3.45679,-5.563785 0,-3.072794 1.54766,-5.563786 3.45679,-5.563786 1.90913,0 3.45679,2.490992 3.45679,5.563786 z"
       sodipodi:ry="5.5637856"
       sodipodi:rx="3.45679"
       sodipodi:cy="74.666672"
       sodipodi:cx="176.82303"
       id="path3234-5"
       style="fill:#000000;stroke:none"
       sodipodi:type="arc" />
    <path
       inkscape:connector-curvature="0"
       id="path3256"
       d="m 193.9753,63.967082 12.70781,6.386831"
       style="fill:none;stroke:#000000;stroke-width:1.70000005;stroke-linecap:butt;stroke-linejoin:miter;stroke-miterlimit:4;stroke-opacity:1;stroke-dasharray:none" />
    <path
       inkscape:connector-curvature="0"
       id="path3294"
       d="m 197.20163,91.028808 13.16873,9.152262 13.95884,-9.086418 z"
       style="fill:none;stroke:#000000;stroke-width:1px;stroke-linecap:butt;stroke-linejoin:miter;stroke-opacity:1" />
    <path
       inkscape:connector-curvature="0"
       id="path3296"
       d="m 201.61316,91.226339 0.0658,2.37037"
       style="fill:none;stroke:#000000;stroke-width:1px;stroke-linecap:butt;stroke-linejoin:miter;stroke-opacity:1" />
    <path
       inkscape:connector-curvature="0"
       id="path3298"
       d="m 205.89299,91.358026 0,5.399177"
       style="fill:none;stroke:#000000;stroke-width:1px;stroke-linecap:butt;stroke-linejoin:miter;stroke-opacity:1" />
    <path
       inkscape:connector-curvature="0"
       id="path3300"
       d="m 210.69958,91.42387 -0.0658,8.362139"
       style="fill:none;stroke:#000000;stroke-width:1px;stroke-linecap:butt;stroke-linejoin:miter;stroke-opacity:1" />
    <path
       inkscape:connector-curvature="0"
       id="path3302"
       d="m 214.97941,91.094652 0.0658,5.925926"
       style="fill:none;stroke:#000000;stroke-width:1px;stroke-linecap:butt;stroke-linejoin:miter;stroke-opacity:1" />
    <path
       inkscape:connector-curvature="0"
       id="path3304"
       d="m 218.79834,91.226339 0,3.226338"
       style="fill:none;stroke:#000000;stroke-width:1px;stroke-linecap:butt;stroke-linejoin:miter;stroke-opacity:1" />
    <path
       sodipodi:nodetypes="caaaasssacc"
       inkscape:connector-curvature="0"
       id="path3308-7"
       d="m 234.8644,64.44812 c 0,0 2.44633,-1.239276 3.42387,-2.172838 1.68651,-1.610643 3.08796,-3.589147 4.01646,-5.728395 0.33935,-0.781834 0.45095,-1.653134 0.52675,-2.502058 0.0664,-0.743592 0.0122,-1.496215 -0.0658,-2.238683 -0.1025,-0.976172 0.083,-3.429456 -0.52675,-2.897119 -0.70404,0.614703 -1.08558,1.587792 -1.3936,2.668198 -0.41207,1.445387 -0.69257,3.082846 -1.43768,4.311225 -0.70251,1.158148 -1.51744,2.327376 -2.63374,3.09465 -0.47717,0.327975 -1.63837,0.577103 -1.63837,0.577103 l -0.20914,0.01549"
       style="fill:#eeee00;fill-opacity:1;stroke:#eeee00;stroke-width:1px;stroke-linecap:butt;stroke-linejoin:miter;stroke-opacity:1" />
    <path
       sodipodi:nodetypes="caaaasssacc"
       inkscape:connector-curvature="0"
       id="path3308-7-9"
       d="m 186.83615,64.448119 c 0,0 -2.44633,-1.239276 -3.42387,-2.172838 -1.68651,-1.610643 -3.08796,-3.589147 -4.01646,-5.728395 -0.33935,-0.781834 -0.45095,-1.653134 -0.52675,-2.502058 -0.0664,-0.743592 -0.0122,-1.496215 0.0658,-2.238683 0.1025,-0.976172 -0.083,-3.429456 0.52675,-2.897119 0.70404,0.614703 1.08558,1.587792 1.3936,2.668198 0.41207,1.445387 0.69257,3.082846 1.43768,4.311225 0.70251,1.158148 1.51744,2.327376 2.63374,3.09465 0.47717,0.327975 1.63837,0.577103 1.63837,0.577103 l 0.20914,0.01549"
       style="fill:#eeee00;fill-opacity:1;stroke:#eeee00;stroke-width:1px;stroke-linecap:butt;stroke-linejoin:miter;stroke-opacity:1" />
    <path
       inkscape:connector-curvature="0"
       id="path3256-7"
       d="m 227.49965,64.021153 -12.70781,6.386831"
       style="fill:none;stroke:#000000;stroke-width:1.70000005;stroke-linecap:butt;stroke-linejoin:miter;stroke-miterlimit:4;stroke-opacity:1;stroke-dasharray:none" />
  </g>
</svg>
